<svg width="975" height="946" viewBox="0 0 975 946" fill="none" xmlns="http://www.w3.org/2000/svg">
<path d="M313.636 109.11C384.876 -35.2376 590.712 -35.2376 661.952 109.11C690.242 166.431 744.925 206.161 808.182 215.353C967.48 238.5 1031.09 434.262 915.818 546.621C870.045 591.239 849.157 655.523 859.963 718.525C887.174 877.179 720.649 998.166 578.169 923.26C521.591 893.515 453.998 893.515 397.419 923.26C254.939 998.166 88.4143 877.179 115.626 718.525C126.431 655.523 105.544 591.239 59.7705 546.621C-55.4983 434.262 8.10852 238.5 167.406 215.353C230.663 206.161 285.347 166.431 313.636 109.11Z" fill="#3479FA"/>
<path fill-rule="evenodd" clip-rule="evenodd" d="M713.082 173.433C697.027 160.291 683.043 144.55 671.794 126.693L649.14 165.717C582.609 229.157 532.993 254.114 488.1 253.832C443.412 253.552 394.378 228.249 329.014 167.202L304.792 125.093C293.663 143.147 279.757 159.082 263.746 172.411L279.213 199.3C279.615 200.077 280.053 200.84 280.528 201.585L379.798 374.163C427.766 457.554 548.003 457.793 596.302 374.594L713.082 173.433ZM431.091 344.658L400.614 291.676C429.313 305.353 458.083 312.819 487.729 313.004C517.618 313.192 546.654 305.976 575.666 292.281L545.127 344.885C519.687 388.708 456.356 388.582 431.091 344.658Z" fill="white"/>
<path fill-rule="evenodd" clip-rule="evenodd" d="M707.351 941.986C727.134 937.858 746.056 930.649 763.463 920.833L699.354 809.722C677.414 720.258 680.545 665.048 703.161 626.519C725.718 588.088 772.223 558.372 858.06 532.059L929.417 532.023C944.878 513.704 956.178 493.662 963.621 472.832L653.169 472.99C556.967 473.039 496.861 577.174 544.939 660.501L707.351 941.986ZM653.199 532.163L713.909 532.132C687.826 550.072 667.055 571.135 652.129 596.565C637.023 622.302 628.781 650.993 626.186 682.912L596.193 630.929C570.869 587.039 602.528 532.189 653.199 532.163Z" fill="white"/>
<path fill-rule="evenodd" clip-rule="evenodd" d="M45.0747 530.711C29.8335 512.338 18.7344 492.268 11.4747 471.433L322.628 472.399C418.83 472.697 478.666 576.988 430.372 660.19L266.962 941.715C247.224 937.457 228.362 930.13 211.026 920.208L276.561 807.304C297.049 719.626 294.58 664.491 272.518 625.724C250.525 587.078 204.543 556.833 117.076 530.934L45.0747 530.711ZM379.195 630.484L348.928 682.629C346.491 650.896 338.614 622.23 323.947 596.457C309.346 570.799 288.869 549.496 262.897 531.387L322.445 531.572C373.116 531.729 404.632 586.661 379.195 630.484Z" fill="white"/>
</svg>
